<svg width="166" height="40" viewBox="0 0 166 40" fill="none" xmlns="http://www.w3.org/2000/svg">
<path d="M52.83 9.7H66.45L65.67 13.33H56.16L55.02 18.82H62.88L62.16 22.18H54.3L52.41 31H48.3L52.83 9.7ZM73.5199 31.15C71.8199 31.15 70.4499 30.84 69.4099 30.22C68.3899 29.58 67.6499 28.72 67.1899 27.64C66.7299 26.54 66.4999 25.31 66.4999 23.95C66.4999 22.89 66.6299 21.76 66.8899 20.56L69.1999 9.7H73.3099L70.9999 20.56C70.7999 21.5 70.6999 22.39 70.6999 23.23C70.6999 24.43 70.9599 25.44 71.4799 26.26C72.0199 27.08 72.9499 27.49 74.2699 27.49C75.4899 27.49 76.5099 27.16 77.3299 26.5C78.1699 25.82 78.8499 24.95 79.3699 23.89C79.8899 22.83 80.2799 21.72 80.5399 20.56L82.8499 9.7H86.9599L84.6499 20.56C84.2299 22.5 83.5399 24.28 82.5799 25.9C81.6399 27.5 80.4099 28.78 78.8899 29.74C77.3899 30.68 75.5999 31.15 73.5199 31.15ZM93.5517 31.24C92.0517 31.24 90.6017 31 89.2017 30.52C87.8017 30.02 86.6117 29.34 85.6317 28.48L88.2117 24.91C88.3517 25.15 88.7117 25.48 89.2917 25.9C89.8917 26.32 90.6317 26.7 91.5117 27.04C92.4117 27.36 93.3817 27.52 94.4217 27.52C95.6217 27.52 96.5117 27.29 97.0917 26.83C97.6917 26.35 97.9917 25.72 97.9917 24.94C97.9917 24.42 97.7917 24 97.3917 23.68C97.0117 23.34 96.4817 23.05 95.8017 22.81C95.1217 22.55 94.3417 22.28 93.4617 22C91.9617 21.52 90.8217 20.94 90.0417 20.26C89.2617 19.56 88.8717 18.61 88.8717 17.41C88.8717 16.17 89.1117 15.07 89.5917 14.11C90.0917 13.13 90.7617 12.3 91.6017 11.62C92.4617 10.94 93.4317 10.43 94.5117 10.09C95.5917 9.73 96.7217 9.55 97.9017 9.55C99.3017 9.55 100.562 9.79 101.682 10.27C102.822 10.75 103.762 11.3 104.502 11.92L101.952 15.28C101.852 15.08 101.562 14.82 101.082 14.5C100.602 14.16 100.002 13.86 99.2817 13.6C98.5617 13.32 97.8017 13.18 97.0017 13.18C95.8017 13.18 94.9017 13.44 94.3017 13.96C93.7017 14.48 93.4017 15.17 93.4017 16.03C93.4017 16.71 93.7417 17.22 94.4217 17.56C95.1017 17.9 96.0717 18.25 97.3317 18.61C98.3917 18.93 99.3117 19.3 100.092 19.72C100.892 20.12 101.512 20.64 101.952 21.28C102.392 21.9 102.612 22.7 102.612 23.68C102.612 25.02 102.352 26.17 101.832 27.13C101.332 28.09 100.652 28.87 99.7917 29.47C98.9317 30.07 97.9617 30.52 96.8817 30.82C95.8017 31.1 94.6917 31.24 93.5517 31.24ZM108.846 9.73H112.956L108.426 31H104.316L108.846 9.73ZM121.54 31.15C120.28 31.15 119.16 30.91 118.18 30.43C117.2 29.95 116.37 29.3 115.69 28.48C115.03 27.64 114.53 26.69 114.19 25.63C113.85 24.57 113.68 23.46 113.68 22.3C113.68 20.68 114.02 19.11 114.7 17.59C115.38 16.07 116.31 14.71 117.49 13.51C118.67 12.29 120.01 11.33 121.51 10.63C123.01 9.91 124.58 9.55 126.22 9.55C127.48 9.55 128.59 9.8 129.55 10.3C130.51 10.8 131.32 11.47 131.98 12.31C132.66 13.13 133.16 14.08 133.48 15.16C133.82 16.22 133.99 17.32 133.99 18.46C133.99 20.06 133.65 21.62 132.97 23.14C132.31 24.64 131.39 26 130.21 27.22C129.05 28.42 127.72 29.38 126.22 30.1C124.74 30.8 123.18 31.15 121.54 31.15ZM122.35 27.49C123.45 27.49 124.45 27.23 125.35 26.71C126.27 26.17 127.06 25.47 127.72 24.61C128.38 23.75 128.89 22.81 129.25 21.79C129.61 20.75 129.79 19.74 129.79 18.76C129.79 17.76 129.62 16.85 129.28 16.03C128.96 15.19 128.47 14.52 127.81 14.02C127.15 13.5 126.33 13.24 125.35 13.24C124.25 13.24 123.24 13.5 122.32 14.02C121.42 14.54 120.64 15.23 119.98 16.09C119.32 16.95 118.8 17.9 118.42 18.94C118.06 19.96 117.88 20.97 117.88 21.97C117.88 22.95 118.04 23.86 118.36 24.7C118.7 25.54 119.2 26.22 119.86 26.74C120.52 27.24 121.35 27.49 122.35 27.49ZM139.256 9.7H142.466L149.726 23.68L152.696 9.73H156.806L152.276 31H148.946L141.716 17.35L138.836 31H134.726L139.256 9.7Z" fill="black"/>
<circle cx="20" cy="20" r="20" fill="white"/>
<path fill-rule="evenodd" clip-rule="evenodd" d="M38.8228 20C38.8228 9.60403 30.3953 1.17645 19.9993 1.17645C9.60336 1.17645 1.17578 9.60403 1.17578 20C1.17578 30.3959 9.60336 38.8235 19.9993 38.8235C30.3953 38.8235 38.8228 30.3959 38.8228 20ZM30.7632 16.1993C30.074 16.8885 29.2358 17.3377 28.3522 17.5469C29.212 20.494 28.4799 23.8071 26.1559 26.131C23.903 28.3839 20.7208 29.1408 17.8434 28.4019C17.6758 29.4075 17.2041 30.3723 16.4283 31.1482C14.4491 33.1273 11.2403 33.1273 9.2612 31.1482C7.28207 29.1691 7.28207 25.9603 9.2612 23.9811C9.96573 23.2766 10.8261 22.8229 11.7313 22.62C10.7824 19.6258 11.4951 16.219 13.8695 13.8447C16.1316 11.5825 19.3309 10.8287 22.2176 11.5831C22.4112 10.6483 22.8707 9.7577 23.5962 9.03227C25.5753 7.05314 28.7841 7.05314 30.7632 9.03227C32.7423 11.0114 32.7423 14.2202 30.7632 16.1993Z" fill="#1890FF"/>
<ellipse cx="20.0234" cy="19.9901" rx="5.28507" ry="5.28507" transform="rotate(-135 20.0234 19.9901)" fill="#1890FF"/>
<ellipse cx="27.1895" cy="12.5153" rx="3.47511" ry="3.47511" transform="rotate(-135 27.1895 12.5153)" fill="#1890FF"/>
<ellipse cx="12.877" cy="27.4843" rx="3.47511" ry="3.47511" transform="rotate(-135 12.877 27.4843)" fill="#1890FF"/>
<path d="M22.2619 17.4712L23.726 12.5464L27.1866 16.007L22.2619 17.4712Z" fill="#1890FF"/>
<path d="M17.7364 22.5302L16.348 27.5307L12.8329 24.0156L17.7364 22.5302Z" fill="#1890FF"/>
</svg>
