<svg width="166" height="40" viewBox="0 0 166 40" fill="none" xmlns="http://www.w3.org/2000/svg">
<path d="M52.83 10.559H66.45L65.67 14.189H56.16L55.02 19.679H62.88L62.16 23.039H54.3L52.41 31.859H48.3L52.83 10.559ZM73.5199 32.009C71.8199 32.009 70.4499 31.699 69.4099 31.079C68.3899 30.439 67.6499 29.579 67.1899 28.499C66.7299 27.399 66.4999 26.169 66.4999 24.809C66.4999 23.749 66.6299 22.619 66.8899 21.419L69.1999 10.559H73.3099L70.9999 21.419C70.7999 22.359 70.6999 23.249 70.6999 24.089C70.6999 25.289 70.9599 26.299 71.4799 27.119C72.0199 27.939 72.9499 28.349 74.2699 28.349C75.4899 28.349 76.5099 28.019 77.3299 27.359C78.1699 26.679 78.8499 25.809 79.3699 24.749C79.8899 23.689 80.2799 22.579 80.5399 21.419L82.8499 10.559H86.9599L84.6499 21.419C84.2299 23.359 83.5399 25.139 82.5799 26.759C81.6399 28.359 80.4099 29.639 78.8899 30.599C77.3899 31.539 75.5999 32.009 73.5199 32.009ZM93.5517 32.099C92.0517 32.099 90.6017 31.859 89.2017 31.379C87.8017 30.879 86.6117 30.199 85.6317 29.339L88.2117 25.769C88.3517 26.009 88.7117 26.339 89.2917 26.759C89.8917 27.179 90.6317 27.559 91.5117 27.899C92.4117 28.219 93.3817 28.379 94.4217 28.379C95.6217 28.379 96.5117 28.149 97.0917 27.689C97.6917 27.209 97.9917 26.579 97.9917 25.799C97.9917 25.279 97.7917 24.859 97.3917 24.539C97.0117 24.199 96.4817 23.909 95.8017 23.669C95.1217 23.409 94.3417 23.139 93.4617 22.859C91.9617 22.379 90.8217 21.799 90.0417 21.119C89.2617 20.419 88.8717 19.469 88.8717 18.269C88.8717 17.029 89.1117 15.929 89.5917 14.969C90.0917 13.989 90.7617 13.159 91.6017 12.479C92.4617 11.799 93.4317 11.289 94.5117 10.949C95.5917 10.589 96.7217 10.409 97.9017 10.409C99.3017 10.409 100.562 10.649 101.682 11.129C102.822 11.609 103.762 12.159 104.502 12.779L101.952 16.139C101.852 15.939 101.562 15.679 101.082 15.359C100.602 15.019 100.002 14.719 99.2817 14.459C98.5617 14.179 97.8017 14.039 97.0017 14.039C95.8017 14.039 94.9017 14.299 94.3017 14.819C93.7017 15.339 93.4017 16.029 93.4017 16.889C93.4017 17.569 93.7417 18.079 94.4217 18.419C95.1017 18.759 96.0717 19.109 97.3317 19.469C98.3917 19.789 99.3117 20.159 100.092 20.579C100.892 20.979 101.512 21.499 101.952 22.139C102.392 22.759 102.612 23.559 102.612 24.539C102.612 25.879 102.352 27.029 101.832 27.989C101.332 28.949 100.652 29.729 99.7917 30.329C98.9317 30.929 97.9617 31.379 96.8817 31.679C95.8017 31.959 94.6917 32.099 93.5517 32.099ZM108.846 10.589H112.956L108.426 31.859H104.316L108.846 10.589ZM121.54 32.009C120.28 32.009 119.16 31.769 118.18 31.289C117.2 30.809 116.37 30.159 115.69 29.339C115.03 28.499 114.53 27.549 114.19 26.489C113.85 25.429 113.68 24.319 113.68 23.159C113.68 21.539 114.02 19.969 114.7 18.449C115.38 16.929 116.31 15.569 117.49 14.369C118.67 13.149 120.01 12.189 121.51 11.489C123.01 10.769 124.58 10.409 126.22 10.409C127.48 10.409 128.59 10.659 129.55 11.159C130.51 11.659 131.32 12.329 131.98 13.169C132.66 13.989 133.16 14.939 133.48 16.019C133.82 17.079 133.99 18.179 133.99 19.319C133.99 20.919 133.65 22.479 132.97 23.999C132.31 25.499 131.39 26.859 130.21 28.079C129.05 29.279 127.72 30.239 126.22 30.959C124.74 31.659 123.18 32.009 121.54 32.009ZM122.35 28.349C123.45 28.349 124.45 28.089 125.35 27.569C126.27 27.029 127.06 26.329 127.72 25.469C128.38 24.609 128.89 23.669 129.25 22.649C129.61 21.609 129.79 20.599 129.79 19.619C129.79 18.619 129.62 17.709 129.28 16.889C128.96 16.049 128.47 15.379 127.81 14.879C127.15 14.359 126.33 14.099 125.35 14.099C124.25 14.099 123.24 14.359 122.32 14.879C121.42 15.399 120.64 16.089 119.98 16.949C119.32 17.809 118.8 18.759 118.42 19.799C118.06 20.819 117.88 21.829 117.88 22.829C117.88 23.809 118.04 24.719 118.36 25.559C118.7 26.399 119.2 27.079 119.86 27.599C120.52 28.099 121.35 28.349 122.35 28.349ZM139.256 10.559H142.466L149.726 24.539L152.696 10.589H156.806L152.276 31.859H148.946L141.716 18.209L138.836 31.859H134.726L139.256 10.559Z" fill="white"/>
<circle cx="20" cy="20" r="20" fill="white"/>
<path fill-rule="evenodd" clip-rule="evenodd" d="M38.8228 20C38.8228 9.60403 30.3953 1.17645 19.9993 1.17645C9.60336 1.17645 1.17578 9.60403 1.17578 20C1.17578 30.3959 9.60336 38.8235 19.9993 38.8235C30.3953 38.8235 38.8228 30.3959 38.8228 20ZM30.7632 16.1993C30.0743 16.8882 29.2363 17.3373 28.3531 17.5466C29.213 20.4938 28.4809 23.807 26.1569 26.131C23.9054 28.3825 20.7256 29.1399 17.8495 28.4031C17.6823 29.4092 17.21 30.3746 16.4325 31.1508C14.4516 33.1285 11.2398 33.1285 9.25886 31.1508C7.2779 29.1731 7.2779 25.9666 9.25886 23.9889C9.96497 23.284 10.8275 22.8303 11.7349 22.6279C10.7821 19.6318 11.494 16.2211 13.8705 13.8446C16.1324 11.5828 19.3312 10.8288 22.2176 11.5828C22.4113 10.6481 22.8708 9.75758 23.5962 9.03221C25.5753 7.05309 28.7841 7.05309 30.7632 9.03221C32.7423 11.0113 32.7423 14.2201 30.7632 16.1993Z" fill="#1890FF"/>
<ellipse cx="20.0234" cy="19.9901" rx="5.28507" ry="5.28506" transform="rotate(-135 20.0234 19.9901)" fill="#1890FF"/>
<circle r="3.47511" transform="matrix(-0.707107 -0.707106 0.707107 -0.707106 27.1895 12.5154)" fill="#1890FF"/>
<ellipse cx="12.877" cy="27.4844" rx="3.47511" ry="3.47511" transform="rotate(-135 12.877 27.4844)" fill="#1890FF"/>
<path d="M22.2619 17.4712L23.726 12.5464L27.1866 16.007L22.2619 17.4712Z" fill="#1890FF"/>
<path d="M17.7364 22.5303L16.348 27.5308L12.8329 24.0157L17.7364 22.5303Z" fill="#1890FF"/>
</svg>
